<svg width="25" height="25" viewBox="0 0 25 25" fill="none" xmlns="http://www.w3.org/2000/svg">
<g clip-path="url(#clip0_158_7)">
<path d="M4 1V3H2V24H23V7H15V3H13V1H4ZM5 2H12V4H14V23H9.5V19.5H7.5V23H3V4H5V2ZM5 5V6H6V5H5ZM7 5V6H8V5H7ZM9 5V6H10V5H9ZM11 5V6H12V5H11ZM5 7.5V9.5H6V7.5H5ZM7 7.5V9.5H8V7.5H7ZM9 7.5V9.5H10V7.5H9ZM11 7.5V9.5H12V7.5H11ZM15 8H22V23H15V8ZM16 9V10H17V9H16ZM18 9V10H19V9H18ZM20 9V10H21V9H20ZM5 10.5V12.5H6V10.5H5ZM7 10.5V12.5H8V10.5H7ZM9 10.5V12.5H10V10.5H9ZM11 10.5V12.5H12V10.5H11ZM16 11V12H17V11H16ZM18 11V12H19V11H18ZM20 11V12H21V11H20ZM16 13V14H17V13H16ZM18 13V14H19V13H18ZM20 13V14H21V13H20ZM5 13.5V15.5H6V13.5H5ZM7 13.5V15.5H8V13.5H7ZM9 13.5V15.5H10V13.5H9ZM11 13.5V15.5H12V13.5H11ZM16 15V16H17V15H16ZM18 15V16H19V15H18ZM20 15V16H21V15H20ZM5 16.5V18.5H6V16.5H5ZM7 16.5V18.5H8V16.5H7ZM9 16.5V18.5H10V16.5H9ZM11 16.5V18.5H12V16.5H11ZM16 17V18H17V17H16ZM18 17V18H19V17H18ZM20 17V18H21V17H20ZM16 19V20H17V19H16ZM18 19V20H19V19H18ZM20 19V20H21V19H20ZM5 19.5V22H6V19.5H5ZM11 19.5V22H12V19.5H11ZM16 21V22H17V21H16ZM18 21V22H19V21H18ZM20 21V22H21V21H20Z" fill="black"/>
</g>
<defs>
<clipPath id="clip0_158_7">
<rect width="25" height="25" fill="white"/>
</clipPath>
</defs>
</svg>
