<svg width="30" height="30" viewBox="0 0 30 30" fill="none" xmlns="http://www.w3.org/2000/svg">
<path d="M8.36358 20.3636C8.01211 20.7151 8.01211 21.2849 8.36358 21.6364C8.71504 21.9878 9.2849 21.9878 9.63637 21.6364L8.36358 20.3636ZM15.6363 15.6364C15.9878 15.2849 15.9878 14.7151 15.6363 14.3636C15.2849 14.0122 14.7151 14.0122 14.3636 14.3636L15.6363 15.6364ZM14.3636 14.3636C14.0121 14.7151 14.0121 15.2849 14.3636 15.6364C14.7151 15.9878 15.2849 15.9878 15.6363 15.6364L14.3636 14.3636ZM21.6363 9.6364C21.9878 9.28493 21.9878 8.71508 21.6363 8.36361C21.2849 8.01214 20.7151 8.01214 20.3636 8.36361L21.6363 9.6364ZM15.6363 14.3636C15.2849 14.0122 14.7151 14.0122 14.3636 14.3636C14.0121 14.7151 14.0121 15.2849 14.3636 15.6364L15.6363 14.3636ZM20.3636 21.6364C20.7151 21.9878 21.2849 21.9878 21.6363 21.6364C21.9878 21.2849 21.9878 20.7151 21.6363 20.3636L20.3636 21.6364ZM14.3636 15.6364C14.7151 15.9878 15.2849 15.9878 15.6363 15.6364C15.9878 15.2849 15.9878 14.7151 15.6363 14.3636L14.3636 15.6364ZM9.63637 8.36361C9.2849 8.01214 8.71504 8.01214 8.36358 8.36361C8.01211 8.71508 8.01211 9.28493 8.36358 9.6364L9.63637 8.36361ZM9.63637 21.6364L15.6363 15.6364L14.3636 14.3636L8.36358 20.3636L9.63637 21.6364ZM15.6363 15.6364L21.6363 9.6364L20.3636 8.36361L14.3636 14.3636L15.6363 15.6364ZM14.3636 15.6364L20.3636 21.6364L21.6363 20.3636L15.6363 14.3636L14.3636 15.6364ZM15.6363 14.3636L9.63637 8.36361L8.36358 9.6364L14.3636 15.6364L15.6363 14.3636Z" fill="#2C2C2C"/>
</svg>
