<svg width="211" height="211" viewBox="0 0 211 211" fill="none" xmlns="http://www.w3.org/2000/svg">
<rect width="211" height="211" rx="10" fill="#D9D9D9"/>
<g clip-path="url(#clip0_190_136)">
<rect width="211" height="211" rx="10" fill="#4CAF50"/>
<path d="M211 105.502C211 163.772 163.77 211.001 105.502 211C47.2302 211.001 0.000488454 163.773 0.000488454 105.502C-0.00280841 47.2318 47.2302 0 105.502 0C163.77 0 211 47.2334 211 105.502Z" fill="#4CAF50"/>
<path d="M213.5 142.5L128.039 61.1388L127.353 60.4518L126.665 59.7644L107.414 40.5136L105.352 38.4514L104.665 37.764C104.403 37.5015 104.09 37.2917 103.743 37.1467C103.398 37.0024 103.025 36.9245 102.643 36.9245H39.7824C38.2028 36.9245 36.9253 38.2041 36.9253 39.7817V159.788C36.9253 160.755 37.4367 161.568 38.1719 162.085C38.3627 162.356 84.6508 208.644 84.9219 208.835C84.9701 208.904 89 214.5 85.0975 209.01C90.4218 216.5 230.517 224 237.5 224C284.154 224.001 199.577 184.48 213.5 142.5Z" fill="#398B3D"/>
<path d="M42.6396 42.6397H99.7855V68.3552C99.7855 69.9332 101.063 71.2124 102.643 71.2124H128.358V91.2132H134.073V68.3659C134.073 68.3643 134.072 68.3622 134.072 68.3602L134.073 68.3548C134.073 68.0503 133.988 67.7717 133.9 67.4964C133.876 67.4239 133.884 67.3427 133.854 67.2718C133.704 66.905 133.479 66.5811 133.2 66.3099L104.666 37.7644C104.404 37.5019 104.091 37.2921 103.743 37.1471C103.398 37.0024 103.025 36.9245 102.643 36.9245H39.7824C38.2028 36.9245 36.9253 38.2037 36.9253 39.7817V159.788C36.9253 161.366 38.2032 162.645 39.7824 162.645H96.9283V156.931H42.6396V42.6397ZM105.5 46.6816L124.308 65.4981H105.5V46.6816Z" fill="#F4F6F9"/>
<path d="M136.93 99.7851C116.449 99.7851 99.7854 116.447 99.7854 136.93C99.7854 157.412 116.449 174.074 136.93 174.074C157.411 174.074 174.075 157.412 174.075 136.93C174.075 116.447 157.411 99.7851 136.93 99.7851ZM136.93 168.36C119.6 168.36 105.5 154.26 105.5 136.93C105.5 119.599 119.6 105.5 136.93 105.5C154.26 105.5 168.36 119.599 168.36 136.93C168.36 154.261 154.261 168.36 136.93 168.36Z" fill="#F4F6F9"/>
<path d="M147.377 138.029L139.788 145.619V121.338C139.788 119.76 138.51 118.481 136.93 118.481C135.351 118.481 134.073 119.76 134.073 121.338V145.619L126.484 138.029C125.368 136.913 123.56 136.913 122.443 138.029C121.327 139.145 121.327 140.953 122.443 142.07L134.91 154.537C135.469 155.095 136.2 155.374 136.93 155.374C137.661 155.374 138.393 155.095 138.951 154.537L151.418 142.07C152.534 140.954 152.534 139.146 151.418 138.029C150.301 136.913 148.493 136.913 147.377 138.029Z" fill="#F4F6F9"/>
</g>
<defs>
<clipPath id="clip0_190_136">
<rect width="211" height="211" rx="10" fill="white"/>
</clipPath>
</defs>
</svg>
