<svg width="16" height="16" viewBox="0 0 16 16" fill="none" xmlns="http://www.w3.org/2000/svg">
<g clip-path="url(#clip0_172_31)">
<path fill-rule="evenodd" clip-rule="evenodd" d="M0.571429 1.42973L15.4286 1.42973C15.744 1.42973 16 1.17371 16 0.857712C16 0.541712 15.744 0.285726 15.4286 0.285726L0.571429 0.285726C0.256001 0.285726 9.53674e-07 0.541712 9.53674e-07 0.857712C9.53674e-07 1.17371 0.256001 1.42973 0.571429 1.42973ZM14.8491 2.5743L1.13257 2.5743C-0.214288 2.5743 -0.169145 3.36688 0.212569 3.95774L7.17714 14.8257C7.496 15.2737 8.44572 15.3126 8.82286 14.8257L15.7874 3.95774C16.1326 3.3126 16.1789 2.5743 14.8491 2.5743Z" fill="#99B2DD"/>
</g>
<defs>
<clipPath id="clip0_172_31">
<rect width="16" height="16" fill="white" transform="matrix(-1 0 0 -1 16 16)"/>
</clipPath>
</defs>
</svg>
