<svg width="60" height="58" viewBox="0 0 60 58" fill="none" xmlns="http://www.w3.org/2000/svg">
<path d="M30 28.0992C32.507 28.0992 34.9114 27.1365 36.6841 25.4228C38.4569 23.7092 39.4528 21.3849 39.4528 18.9615C39.4528 16.538 38.4569 14.2138 36.6841 12.5001C34.9114 10.7865 32.507 9.82375 30 9.82375C27.493 9.82375 25.0886 10.7865 23.3159 12.5001C21.5431 14.2138 20.5472 16.538 20.5472 18.9615C20.5472 21.3849 21.5431 23.7092 23.3159 25.4228C25.0886 27.1365 27.493 28.0992 30 28.0992ZM30 32.1139C17.4319 32.1139 9.375 38.8183 9.375 42.0826V48.1781H50.625V42.0826C50.625 38.135 42.9975 32.1139 30 32.1139Z" fill="white"/>
</svg>
