<svg width="27" height="27" viewBox="0 0 27 27" fill="none" xmlns="http://www.w3.org/2000/svg">
<path d="M13.5 5.10031C14.8304 5.10031 16.1418 5.41635 17.3262 6.02239C18.5106 6.62843 19.5341 7.50714 20.3124 8.58616C21.0907 9.66519 21.6016 10.9137 21.8029 12.2288C22.0043 13.5439 21.8904 14.888 21.4705 16.1505C21.0507 17.4129 20.3371 18.5576 19.3882 19.4903C18.4394 20.4229 17.2827 21.1168 16.0132 21.5149C14.7437 21.913 13.3978 22.0038 12.0864 21.7799C10.7749 21.556 9.53539 21.0238 8.46989 20.2271L15.043 13.6539V16.6347C15.043 16.953 15.1695 17.2583 15.3946 17.4833C15.6196 17.7084 15.9249 17.8349 16.2432 17.8349C16.5615 17.8349 16.8667 17.7084 17.0918 17.4833C17.3169 17.2583 17.4433 16.953 17.4433 16.6347V10.7568C17.4433 10.0953 16.906 9.55666 16.2418 9.55666H10.3653C10.047 9.55666 9.74172 9.68311 9.51665 9.90818C9.29158 10.1333 9.16514 10.4385 9.16514 10.7568C9.16514 11.0751 9.29158 11.3804 9.51665 11.6054C9.74172 11.8305 10.047 11.957 10.3653 11.957H13.3461L6.77159 18.5315C5.68386 17.0799 5.09773 15.3139 5.10163 13.5C5.10163 11.2725 5.98642 9.13622 7.56137 7.56101C9.13633 5.98579 11.2725 5.10067 13.5 5.10031ZM24.3 13.5C24.3 10.6357 23.1621 7.88865 21.1367 5.86326C19.1113 3.83787 16.3643 2.70001 13.5 2.70001C10.6356 2.70001 7.88863 3.83787 5.86323 5.86326C3.83784 7.88865 2.69999 10.6357 2.69999 13.5C2.69999 16.3644 3.83784 19.1114 5.86323 21.1368C7.88863 23.1622 10.6356 24.3 13.5 24.3C16.3643 24.3 19.1113 23.1622 21.1367 21.1368C23.1621 19.1114 24.3 16.3644 24.3 13.5Z" fill="#005BB6"/>
</svg>
