<svg width="58" height="58" viewBox="0 0 58 58" fill="none" xmlns="http://www.w3.org/2000/svg">
<path fill-rule="evenodd" clip-rule="evenodd" d="M21.75 25.375C21.75 31.3811 26.6189 36.25 32.625 36.25C38.6311 36.25 43.5 31.3811 43.5 25.375C43.5 19.3689 38.6311 14.5 32.625 14.5C26.6189 14.5 21.75 19.3689 21.75 25.375ZM23.7334 36.8298C26.1889 38.7384 29.2743 39.875 32.625 39.875C40.6331 39.875 47.125 33.3831 47.125 25.375C47.125 17.3669 40.6331 10.875 32.625 10.875C24.6169 10.875 18.125 17.3669 18.125 25.375C18.125 28.7257 19.2616 31.8111 21.1702 34.2664L9.5932 45.8434L12.1566 48.4066L23.7334 36.8298Z" fill="#9DFFF9"/>
</svg>
